<svg width="122" height="122" viewBox="0 0 122 122" fill="none" xmlns="http://www.w3.org/2000/svg">
<g clip-path="url(#clip0_3_118)">
<path d="M121.81 0H0V121.8H121.81V0Z" fill="#FFB900"/>
<path d="M60.9001 27.22C56.4025 27.22 52.006 28.5536 48.2664 31.0523C44.5268 33.551 41.6122 37.1026 39.891 41.2578C38.1699 45.4129 37.7196 49.9852 38.597 54.3963C39.4744 58.8075 41.6401 62.8593 44.8204 66.0396C48.0006 69.2198 52.0526 71.3856 56.4637 72.263C60.8748 73.1405 65.447 72.6901 69.6022 70.969C73.7574 69.2479 77.309 66.3332 79.8077 62.5936C82.3064 58.8541 83.6401 54.4575 83.6401 49.96C83.6401 43.9289 81.2442 38.1449 76.9797 33.8804C72.7151 29.6158 66.9311 27.22 60.9001 27.22ZM60.9001 63.76C58.1707 63.76 55.5026 62.9506 53.2332 61.4342C50.9638 59.9179 49.1949 57.7626 48.1504 55.241C47.106 52.7194 46.8327 49.9447 47.3652 47.2677C47.8976 44.5908 49.2121 42.1319 51.142 40.2019C53.072 38.2719 55.5309 36.9576 58.2078 36.4251C60.8848 35.8927 63.6595 36.1659 66.1811 37.2104C68.7027 38.2549 70.858 40.0237 72.3743 42.2931C73.8907 44.5625 74.7 47.2306 74.7 49.96C74.7 53.6199 73.2461 57.13 70.6581 59.718C68.0701 62.306 64.5601 63.76 60.9001 63.76Z" fill="white"/>
<path d="M91.08 49.96H30.73C29.7957 49.9602 28.8739 50.1754 28.036 50.5889C27.1982 51.0025 26.4668 51.6032 25.8984 52.3448C25.3299 53.0863 24.9396 53.9486 24.7578 54.8651C24.5761 55.7816 24.6076 56.7276 24.85 57.63L31.0201 80.63C31.5065 82.4434 32.5776 84.0457 34.0674 85.1884C35.5572 86.3311 37.3825 86.9503 39.26 86.95H82.56C84.4375 86.9503 86.2628 86.3311 87.7526 85.1884C89.2424 84.0457 90.3135 82.4434 90.8 80.63L96.97 57.63C97.2124 56.7276 97.244 55.7816 97.0622 54.8651C96.8804 53.9486 96.4901 53.0863 95.9217 52.3448C95.3532 51.6032 94.6218 51.0025 93.784 50.5889C92.9461 50.1754 92.0243 49.9602 91.09 49.96" fill="#003C96"/>
</g>
<defs>
<clipPath id="clip0_3_118">
<rect width="121.81" height="121.8" fill="white"/>
</clipPath>
</defs>
</svg>
