<svg width="75" height="75" viewBox="0 0 75 75" fill="none" xmlns="http://www.w3.org/2000/svg">
<path d="M66.7763 67.9736C55.2999 77.342 19.4657 77.342 8.22359 67.9736C-3.25273 58.6051 -2.0817 18.5552 8.22359 8.01568C18.5289 -2.52378 56.471 -2.52378 66.7763 8.01568C77.0816 18.5552 78.2526 58.6053 66.7763 67.9736Z" fill="#8DC640"/>
<g opacity="0.2">
<path opacity="0.2" d="M37.7343 51.5789C27.429 59.7763 15.9527 63.9921 5.17901 64.2263C-2.78422 50.6421 -1.14467 17.6185 8.22376 8.01587C16.6553 -0.649879 43.1211 -2.28942 58.3449 3.0974C62.0921 18.5553 54.3633 38.2289 37.7343 51.5789Z" fill="white"/>
</g>
<path d="M32.1131 58.371C30.4735 58.371 28.8342 57.6683 27.8973 56.2631L14.7816 39.4C12.9079 37.0579 13.3764 33.779 15.7185 31.9053C18.0605 30.0315 21.3395 30.5 23.2132 32.8421L32.1131 44.3184L51.7868 18.7895C53.6605 16.4475 56.9395 15.979 59.2815 17.8527C61.6236 19.7264 62.0921 23.0053 60.2184 25.3474L36.3289 56.2631C35.1579 57.4342 33.7526 58.371 32.1131 58.371Z" fill="white"/>
</svg>
