<svg width="10" height="11" viewBox="0 0 10 11" fill="none" xmlns="http://www.w3.org/2000/svg">
<g clip-path="url(#clip0_136_1051)">
<path d="M0.947968 10.4374C0.702796 10.4517 0.461679 10.3702 0.27546 10.2101C-0.0917996 9.84067 -0.0917996 9.24399 0.27546 8.87455L8.31724 0.832744C8.69922 0.475311 9.29861 0.49518 9.65605 0.877162C9.97926 1.22259 9.9981 1.75351 9.70015 2.12096L1.61099 10.2101C1.42718 10.3679 1.18993 10.4492 0.947968 10.4374Z" fill="#AA2332"/>
<path d="M8.9803 10.4375C8.73182 10.4364 8.49366 10.3378 8.31724 10.1628L0.275429 2.12095C-0.0648177 1.72362 -0.0185593 1.12566 0.37877 0.785384C0.733396 0.481695 1.2564 0.481695 1.61099 0.785384L9.70015 8.82719C10.082 9.18472 10.1018 9.78414 9.74426 10.166C9.73004 10.1812 9.71534 10.1959 9.70015 10.2101C9.50208 10.3824 9.24141 10.4647 8.9803 10.4375Z" fill="#AA2332"/>
</g>
<defs>
<clipPath id="clip0_136_1051">
<rect width="10" height="10" fill="white" transform="translate(0 0.5)"/>
</clipPath>
</defs>
</svg>
