<svg width="27" height="27" viewBox="0 0 27 27" fill="none" xmlns="http://www.w3.org/2000/svg">
<g clip-path="url(#clip0_123_194)">
<path d="M13.5 0C10.8299 0 8.21983 0.791761 5.99977 2.27516C3.77971 3.75856 2.04938 5.86697 1.0276 8.33377C0.00581878 10.8006 -0.261526 13.515 0.259374 16.1337C0.780274 18.7525 2.06602 21.1579 3.95403 23.0459C5.84204 24.934 8.24751 26.2197 10.8662 26.7406C13.485 27.2615 16.1994 26.9942 18.6662 25.9724C21.133 24.9506 23.2414 23.2203 24.7248 21.0002C26.2082 18.7801 27 16.17 27 13.5C27 9.91958 25.5776 6.4858 23.0459 3.95406C20.5142 1.42232 17.0804 0 13.5 0V0ZM16.9211 12.2211L16.6973 14.1022C16.6877 14.1895 16.646 14.2701 16.5804 14.3285C16.5148 14.3869 16.4299 14.4189 16.3421 14.4184H14.3881V19.996C14.3886 20.0626 14.3627 20.1267 14.3161 20.1742C14.2695 20.2218 14.206 20.2491 14.1394 20.25H12.15C12.1168 20.2495 12.0841 20.2426 12.0537 20.2294C12.0233 20.2163 11.9957 20.1974 11.9726 20.1736C11.9495 20.1499 11.9314 20.1218 11.9191 20.091C11.9069 20.0602 11.9008 20.0273 11.9013 19.9942L11.9119 14.4184H10.4323C10.338 14.4184 10.2477 14.3809 10.1811 14.3143C10.1144 14.2477 10.077 14.1573 10.077 14.0631V12.1838C10.077 12.0895 10.1144 11.9992 10.1811 11.9325C10.2477 11.8659 10.338 11.8285 10.4323 11.8285H11.9013V10.006C11.9013 7.8975 13.1571 6.75 14.9921 6.75H16.4966C16.5908 6.75 16.6812 6.78743 16.7478 6.85405C16.8144 6.92068 16.8519 7.01104 16.8519 7.10526V8.68796C16.8519 8.78218 16.8144 8.87255 16.7478 8.93917C16.6812 9.00579 16.5908 9.04322 16.4966 9.04322H15.5747C14.5764 9.05921 14.3881 9.53704 14.3881 10.2511V11.8232H16.5765C16.6261 11.8243 16.6749 11.8358 16.7197 11.8569C16.7646 11.878 16.8046 11.9083 16.837 11.9457C16.8695 11.9832 16.8937 12.0271 16.9082 12.0745C16.9227 12.1219 16.9271 12.1718 16.9211 12.2211Z" fill="white"/>
</g>
<defs>
<clipPath id="clip0_123_194">
<rect width="27" height="27" fill="white"/>
</clipPath>
</defs>
</svg>
