<?xml version="1.0" encoding="UTF-8"?>
<svg xmlns="http://www.w3.org/2000/svg" xmlns:xlink="http://www.w3.org/1999/xlink" viewBox="0 0 24 24" width="24px" height="24px">
<g id="surface54679542">
<path style=" stroke:none;fill-rule:nonzero;fill:rgb(100%,100%,100%);fill-opacity:1;" d="M 8.601562 3.75 C 5.9375 3.75 3.75 5.9375 3.75 8.601562 L 3.75 15.398438 C 3.75 18.0625 5.9375 20.25 8.601562 20.25 L 15.398438 20.25 C 18.0625 20.25 20.25 18.066406 20.25 15.398438 L 20.25 8.601562 C 20.25 5.9375 18.066406 3.75 15.398438 3.75 Z M 8.601562 5.25 L 15.398438 5.25 C 17.253906 5.25 18.75 6.746094 18.75 8.601562 L 18.75 15.398438 C 18.75 17.253906 17.253906 18.75 15.398438 18.75 L 8.601562 18.75 C 6.746094 18.75 5.25 17.253906 5.25 15.398438 L 5.25 8.601562 C 5.25 6.746094 6.746094 5.25 8.601562 5.25 Z M 16.429688 6.890625 C 16.050781 6.890625 15.75 7.191406 15.75 7.570312 C 15.75 7.949219 16.050781 8.25 16.429688 8.25 C 16.808594 8.25 17.109375 7.949219 17.109375 7.570312 C 17.109375 7.191406 16.808594 6.890625 16.429688 6.890625 Z M 12 7.5 C 9.523438 7.5 7.5 9.523438 7.5 12 C 7.5 14.476562 9.523438 16.5 12 16.5 C 14.476562 16.5 16.5 14.476562 16.5 12 C 16.5 9.523438 14.476562 7.5 12 7.5 Z M 12 9 C 13.667969 9 15 10.332031 15 12 C 15 13.667969 13.667969 15 12 15 C 10.332031 15 9 13.667969 9 12 C 9 10.332031 10.332031 9 12 9 Z M 12 9 "/>
</g>
</svg>
