<svg width="27" height="27" viewBox="0 0 27 27" fill="none" xmlns="http://www.w3.org/2000/svg">
<g clip-path="url(#clip0_123_204)">
<path d="M13.5 15.6334C14.6782 15.6334 15.6333 14.6783 15.6333 13.5001C15.6333 12.3218 14.6782 11.3667 13.5 11.3667C12.3218 11.3667 11.3666 12.3218 11.3666 13.5001C11.3666 14.6783 12.3218 15.6334 13.5 15.6334Z" fill="white"/>
<path d="M16.2284 8.10889H10.7716C10.0649 8.10889 9.3872 8.38961 8.88751 8.88929C8.38782 9.38898 8.1071 10.0667 8.1071 10.7734V16.2284C8.1071 16.9351 8.38782 17.6128 8.88751 18.1125C9.3872 18.6122 10.0649 18.8929 10.7716 18.8929H16.2284C16.9351 18.8929 17.6128 18.6122 18.1125 18.1125C18.6122 17.6128 18.8929 16.9351 18.8929 16.2284V10.7716C18.8924 10.0652 18.6115 9.38797 18.1119 8.88867C17.6122 8.38936 16.9348 8.10889 16.2284 8.10889ZM13.5 16.9923C12.8092 16.9926 12.1339 16.7881 11.5593 16.4046C10.9848 16.021 10.5369 15.4758 10.2723 14.8377C10.0077 14.1996 9.93832 13.4973 10.0729 12.8198C10.2074 12.1423 10.5399 11.5198 11.0282 11.0313C11.5165 10.5427 12.1388 10.2099 12.8163 10.075C13.4937 9.94011 14.196 10.0092 14.8342 10.2734C15.4725 10.5377 16.018 10.9853 16.4018 11.5596C16.7856 12.134 16.9905 12.8092 16.9905 13.5C16.9895 14.4256 16.6215 15.3131 15.9672 15.9677C15.3129 16.6224 14.4256 16.9908 13.5 16.9923ZM17.0118 10.8711C16.8409 10.8714 16.6737 10.821 16.5315 10.7263C16.3893 10.6316 16.2783 10.4968 16.2128 10.339C16.1472 10.1811 16.13 10.0074 16.1632 9.83979C16.1965 9.67216 16.2787 9.51817 16.3996 9.39733C16.5204 9.27649 16.6744 9.19424 16.842 9.16098C17.0097 9.12773 17.1834 9.14497 17.3412 9.21054C17.499 9.2761 17.6338 9.38702 17.7285 9.52926C17.8233 9.6715 17.8737 9.83865 17.8733 10.0095C17.8728 10.2379 17.7819 10.4567 17.6204 10.6182C17.459 10.7797 17.2401 10.8706 17.0118 10.8711Z" fill="white"/>
<path d="M13.5 0C10.8299 0 8.21984 0.791761 5.99978 2.27516C3.77971 3.75856 2.04939 5.86697 1.0276 8.33377C0.00581879 10.8006 -0.261526 13.515 0.259374 16.1337C0.780275 18.7525 2.06603 21.1579 3.95403 23.0459C5.84204 24.934 8.24751 26.2197 10.8663 26.7406C13.485 27.2615 16.1994 26.9942 18.6662 25.9724C21.133 24.9506 23.2414 23.2203 24.7248 21.0002C26.2082 18.7801 27 16.17 27 13.5C27 9.91958 25.5777 6.4858 23.0459 3.95406C20.5142 1.42232 17.0804 0 13.5 0V0ZM20.25 16.2284C20.249 17.2947 19.825 18.3171 19.071 19.0711C18.3171 19.8251 17.2947 20.2491 16.2284 20.25H10.7716C9.7054 20.2486 8.68331 19.8244 7.92943 19.0706C7.17554 18.3167 6.75139 17.2946 6.74998 16.2284V10.7716C6.75139 9.70542 7.17554 8.68334 7.92943 7.92945C8.68331 7.17556 9.7054 6.75141 10.7716 6.75H16.2284C17.2946 6.75141 18.3166 7.17556 19.0705 7.92945C19.8244 8.68334 20.2486 9.70542 20.25 10.7716V16.2284Z" fill="white"/>
</g>
<defs>
<clipPath id="clip0_123_204">
<rect width="27" height="27" fill="white"/>
</clipPath>
</defs>
</svg>
