<svg width="122" height="122" viewBox="0 0 122 122" fill="none" xmlns="http://www.w3.org/2000/svg">
<g clip-path="url(#clip0_3_102)">
<path d="M121.81 0H0V121.8H121.81V0Z" fill="#FF7500"/>
<path d="M57.4901 44.5901V81.5901H77.31C79.1863 81.5899 81.01 80.9703 82.4981 79.8275C83.9862 78.6848 85.0555 77.0827 85.54 75.2701L91.71 52.2701C91.9524 51.3677 91.984 50.4217 91.8022 49.5052C91.6204 48.5888 91.2301 47.7264 90.6617 46.9849C90.0932 46.2434 89.3618 45.6426 88.524 45.2291C87.6861 44.8155 86.7644 44.6003 85.83 44.6001H57.48L57.4901 44.5901Z" fill="white"/>
<path d="M60.47 33.48L57.47 44.6H70.82L72.9 36.83C73.2664 35.2024 72.9891 33.4962 72.1259 32.0685C71.2627 30.6409 69.8806 29.6025 68.2691 29.1709C66.6576 28.7393 64.9416 28.9478 63.4804 29.7529C62.0192 30.558 60.9261 31.8972 60.43 33.49" fill="white"/>
<path d="M36.2401 50.9101L30.07 73.9101C29.8276 74.8124 29.7961 75.7584 29.9779 76.6749C30.1597 77.5914 30.5499 78.4538 31.1184 79.1953C31.6868 79.9368 32.4182 80.5376 33.2561 80.9511C34.0939 81.3646 35.0157 81.5799 35.95 81.5801H57.4901V44.5801H44.4901C42.6138 44.5803 40.7901 45.1999 39.302 46.3427C37.8139 47.4854 36.7445 49.0874 36.26 50.9001" fill="#003C96"/>
</g>
<defs>
<clipPath id="clip0_3_102">
<rect width="121.81" height="121.8" fill="white"/>
</clipPath>
</defs>
</svg>
