<svg width="256" height="59" viewBox="0 0 256 59" fill="none" xmlns="http://www.w3.org/2000/svg">
<g clip-path="url(#clip0_3_33)">
<path d="M0 41.0488C2.2303 46.3741 5.95255 50.9153 10.7034 54.1071C15.4543 57.299 21.024 59.0005 26.7193 59C24.4882 53.6757 20.7656 49.1357 16.0148 45.9449C11.264 42.7541 5.69469 41.0534 0 41.0545" fill="#00BF63"/>
<path d="M48.4959 22.1182C48.4959 26.4939 47.2191 30.7712 44.8268 34.4094C42.4346 38.0477 39.0344 40.8833 35.0563 42.5578C31.0782 44.2323 26.7007 44.6704 22.4775 43.8167C18.2544 42.9631 14.3751 40.856 11.3304 37.762C8.28564 34.6679 6.21213 30.7259 5.37208 26.4343C4.53204 22.1428 4.96319 17.6944 6.61099 13.6519C8.25879 9.60933 11.0493 6.15411 14.6295 3.72314C18.2097 1.29217 22.4189 -0.00537109 26.7249 -0.00537109C32.4989 -0.00537109 38.0365 2.32551 42.1193 6.47448C46.2022 10.6235 48.4959 16.2507 48.4959 22.1182Z" fill="#FFBA00"/>
<path d="M26.7193 58.9998C30.8985 59.0019 34.99 57.7819 38.5056 55.4855C42.0211 53.1891 44.8121 49.9132 46.5454 46.0488C42.3662 46.0467 38.2747 47.2667 34.7592 49.5631C31.2437 51.8595 28.4527 55.1354 26.7193 58.9998Z" fill="#00BF63"/>
<path d="M37.6076 22.1178C37.6076 24.3062 36.969 26.4454 35.7726 28.265C34.5762 30.0846 32.8757 31.5027 30.8861 32.3402C28.8965 33.1777 26.7072 33.3968 24.5951 32.9698C22.483 32.5429 20.5429 31.4891 19.0201 29.9417C17.4974 28.3943 16.4603 26.4228 16.0402 24.2764C15.6201 22.1301 15.8357 19.9054 16.6598 17.8836C17.4839 15.8618 18.8795 14.1337 20.6701 12.9179C22.4607 11.7021 24.5658 11.0532 26.7193 11.0532C29.6071 11.0532 32.3766 12.2189 34.4185 14.294C36.4605 16.369 37.6076 19.1833 37.6076 22.1178Z" fill="#003D96"/>
<path d="M126.443 33.4696C126.443 30.6879 123.733 29.4435 120.697 29.4435C116.059 29.4435 112.047 31.4312 110.822 36.5496C120.27 39.32 126.443 37.2535 126.443 33.4639V33.4696ZM110.623 42.4733C111.604 48.5997 116.38 50.5986 121.229 50.5986C124.39 50.6009 127.451 49.4749 129.878 47.4172L135.497 53.1606C132.145 56.9389 127.474 58.9942 121.09 58.9942C112.152 58.9942 101.375 53.6336 101.375 40.052C101.375 26.4704 111.753 21.1099 120.569 21.1099C131.718 21.1099 136.334 26.431 136.334 32.3997C136.334 42.158 124.143 46.6626 110.623 42.4677V42.4733ZM66.765 22.1178L66.4935 35.5924C66.427 41.0487 66.2331 43.7402 65.4573 46.8541C64.748 49.8103 63.3849 50.6493 61.2516 50.6493C60.6151 50.6727 59.9794 50.5831 59.3732 50.3846V58.0088C60.456 58.473 61.6302 58.6754 62.8031 58.6C69.2087 58.4029 72.3117 55.3341 73.8854 49.8103C74.9936 45.8687 75.1764 42.8449 75.3704 38.3065L75.5754 31.0314H86.8848V58.0088H95.9889V22.1178H66.765ZM242.025 40.052C242.025 37.1127 241.105 34.6746 239.199 32.8051C237.323 30.9641 234.817 29.9352 232.209 29.9352C229.601 29.9352 227.095 30.9641 225.219 32.8051C224.297 33.7586 223.576 34.8929 223.1 36.1388C222.623 37.3848 222.402 38.7162 222.448 40.052C222.409 41.398 222.633 42.7386 223.109 43.9954C223.584 45.2523 224.302 46.4002 225.219 47.3721C227.116 49.1711 229.614 50.1717 232.209 50.1717C234.804 50.1717 237.302 49.1711 239.199 47.3721C240.138 46.413 240.873 45.2687 241.359 44.0096C241.845 42.7506 242.072 41.4037 242.025 40.052ZM256 50.1875V57.8174C254.196 58.6575 252.226 59.0622 250.243 58.9998C245.511 58.9998 243.128 56.9051 242.175 53.5379L242.025 53.7631C239.255 57.2768 235.459 58.9998 230.516 58.9998C225.784 58.9998 221.761 57.2092 218.37 53.5492C215.141 49.8366 213.358 45.0523 213.358 40.0971C213.358 35.1418 215.141 30.3575 218.37 26.645C221.761 22.9849 225.784 21.1211 230.516 21.1211C235.248 21.1211 238.933 22.6978 241.654 25.913V22.1178H250.764V47.4904C250.764 49.6582 251.733 50.7788 253.673 50.7788C254.487 50.8028 255.292 50.5982 256 50.1875ZM180.192 31.0427H191.529V58.0201H200.639V31.0202H211.837V22.1178H180.192V31.0145V31.0427ZM166.799 22.1178H175.909V57.9863H166.799V44.0218H150.896V57.9919H141.792V22.1178H150.896V35.339H166.799V22.1178Z" fill="white"/>
</g>
<defs>
<clipPath id="clip0_3_33">
<rect width="256" height="59" fill="white"/>
</clipPath>
</defs>
</svg>
