<svg width="190" height="43" viewBox="0 0 190 43" fill="none" xmlns="http://www.w3.org/2000/svg">
<g clip-path="url(#clip0_3_195)">
<path d="M0.0163879 29.917C1.67169 33.7981 4.43427 37.1078 7.96031 39.4341C11.4864 41.7603 15.6201 43.0004 19.8471 43C18.1918 39.1188 15.4292 35.8092 11.9032 33.4829C8.37714 31.1567 4.24338 29.9166 0.0163879 29.917Z" fill="#00BF63"/>
<path d="M35.9889 16.124C35.9889 19.313 35.0413 22.4304 33.2658 25.082C31.4903 27.7335 28.9667 29.8002 26.0142 31.0206C23.0617 32.241 19.8128 32.5603 16.6784 31.9381C13.544 31.316 10.6649 29.7803 8.40515 27.5253C6.14538 25.2704 4.60642 22.3974 3.98295 19.2696C3.35948 16.1419 3.67948 12.8999 4.90245 9.95359C6.12543 7.00732 8.1965 4.4891 10.8537 2.71738C13.5109 0.945651 16.635 0 19.8307 0C24.1162 0 28.2261 1.69877 31.2563 4.72261C34.2866 7.74644 35.9889 11.8476 35.9889 16.124Z" fill="#FFBA00"/>
<path d="M19.8307 43C22.9325 43.0015 25.9692 42.1124 28.5784 40.4388C31.1875 38.7651 33.259 36.3776 34.5454 33.5612C31.4437 33.5596 28.407 34.4487 25.7978 36.1224C23.1886 37.7961 21.1172 40.1836 19.8307 43Z" fill="#00BF63"/>
<path d="M27.9078 16.124C27.9078 17.7189 27.4339 19.278 26.5459 20.6041C25.6579 21.9302 24.3958 22.9638 22.9192 23.5742C21.4425 24.1845 19.8177 24.3442 18.2501 24.0331C16.6825 23.7219 15.2426 22.9539 14.1124 21.8261C12.9822 20.6983 12.2126 19.2615 11.9008 17.6972C11.5889 16.1329 11.749 14.5115 12.3606 13.038C12.9722 11.5645 14.008 10.3051 15.337 9.41898C16.6659 8.53289 18.2284 8.05994 19.8267 8.05994C20.8879 8.05994 21.9387 8.26853 22.9192 8.67378C23.8996 9.07904 24.7905 9.67303 25.5409 10.4218C26.2913 11.1707 26.8865 12.0596 27.2927 13.038C27.6988 14.0164 27.9078 15.065 27.9078 16.124Z" fill="#003D96"/>
<path d="M93.8444 24.3932C93.8444 22.3659 91.8333 21.4589 89.5797 21.4589C86.1375 21.4589 83.1599 22.9076 82.2511 26.638C89.263 28.6571 93.8444 27.151 93.8444 24.3891V24.3932ZM82.103 30.9552C82.8309 35.4202 86.376 36.877 89.9745 36.877C92.3205 36.8787 94.5927 36.0581 96.3941 34.5584L100.564 38.7443C98.0721 41.498 94.6093 42.9959 89.8716 42.9959C83.2381 42.9959 75.2392 39.089 75.2392 29.1906C75.2392 19.2921 82.942 15.3853 89.4851 15.3853C97.7595 15.3853 101.185 19.2634 101.185 23.6135C101.185 30.7254 92.1377 34.0085 82.103 30.9511V30.9552ZM49.548 16.1157L49.3671 25.9444C49.3177 29.9211 49.1738 31.8827 48.5981 34.1521C48.0716 36.3066 47.0641 36.9181 45.4766 36.9181C45.0042 36.9351 44.5324 36.8699 44.0825 36.7252V42.2818C44.8862 42.6201 45.7576 42.7677 46.6281 42.7127C51.3822 42.5691 53.6853 40.3325 54.8532 36.3066C55.6757 33.4339 55.8115 31.2302 55.9554 27.9225L56.1076 22.6203H64.5013V42.2818H71.2582V16.1404H49.5768L49.548 16.1157ZM179.628 29.1865C179.628 27.0443 178.945 25.2673 177.531 23.9048C176.138 22.5631 174.278 21.8132 172.343 21.8132C170.407 21.8132 168.547 22.5631 167.155 23.9048C166.471 24.5997 165.935 25.4264 165.582 26.3345C165.228 27.2425 165.064 28.2129 165.099 29.1865C165.069 30.1674 165.236 31.1445 165.589 32.0605C165.942 32.9765 166.474 33.8131 167.155 34.5215C168.563 35.8326 170.417 36.5618 172.343 36.5618C174.269 36.5618 176.123 35.8326 177.531 34.5215C178.227 33.8225 178.773 32.9884 179.133 32.0708C179.494 31.1532 179.663 30.1716 179.628 29.1865ZM190.016 36.5734V42.13C188.678 42.7423 187.215 43.0373 185.744 42.9918C182.231 42.9918 180.463 41.4651 179.756 39.011L179.645 39.1752C177.588 41.736 174.771 42.9918 171.103 42.9918C167.591 42.9918 164.605 41.6868 162.088 39.0193C159.691 36.3135 158.368 32.8266 158.368 29.2152C158.368 25.6037 159.691 22.1169 162.088 19.4111C164.605 16.7436 167.591 15.3853 171.103 15.3853C174.615 15.3853 177.35 16.5343 179.369 18.8776V16.1198H186.13V34.6117C186.13 36.1917 186.85 37.0084 188.289 37.0084C188.894 37.0246 189.492 36.8741 190.016 36.5734ZM133.753 22.6203H142.167V42.2818H148.928V22.6203H157.239V16.1363H133.753V22.6203ZM123.804 16.124H130.565V42.2654H123.804V32.0838H112.001V42.2654H105.24V16.124H112.001V25.7598H123.804V16.124Z" fill="#003D96"/>
</g>
<defs>
<clipPath id="clip0_3_195">
<rect width="190" height="43" fill="white"/>
</clipPath>
</defs>
</svg>
