<?xml version="1.0" encoding="UTF-8"?>
<svg xmlns="http://www.w3.org/2000/svg" xmlns:xlink="http://www.w3.org/1999/xlink" viewBox="0 0 24 24" width="24px" height="24px">
<g id="surface54683550">
<path style=" stroke:none;fill-rule:nonzero;fill:rgb(100%,100%,100%);fill-opacity:1;" d="M 11.25 6.246094 C 12.222656 6.246094 13.015625 7.039062 13.015625 8.007812 C 13.015625 8.980469 12.222656 9.769531 11.25 9.769531 C 10.277344 9.769531 9.484375 8.980469 9.484375 8.007812 C 9.484375 7.039062 10.277344 6.246094 11.25 6.246094 Z M 11.25 12.265625 C 13.601562 12.265625 15.507812 10.355469 15.507812 8.011719 C 15.507812 5.660156 13.601562 3.75 11.25 3.75 C 8.902344 3.75 6.992188 5.660156 6.992188 8.011719 C 6.992188 10.355469 8.902344 12.265625 11.25 12.265625 Z M 12.972656 15.742188 C 13.839844 15.542969 14.675781 15.199219 15.445312 14.714844 C 16.027344 14.351562 16.203125 13.578125 15.835938 12.996094 C 15.46875 12.410156 14.703125 12.234375 14.117188 12.605469 C 12.371094 13.699219 10.128906 13.699219 8.382812 12.605469 C 7.796875 12.234375 7.027344 12.410156 6.664062 12.996094 C 6.296875 13.578125 6.472656 14.351562 7.054688 14.714844 C 7.824219 15.199219 8.660156 15.542969 9.527344 15.742188 L 7.144531 18.121094 C 6.660156 18.605469 6.660156 19.398438 7.144531 19.882812 C 7.390625 20.128906 7.707031 20.25 8.027344 20.25 C 8.347656 20.25 8.664062 20.128906 8.910156 19.882812 L 11.25 17.546875 L 13.589844 19.882812 C 14.078125 20.375 14.863281 20.375 15.355469 19.882812 C 15.839844 19.398438 15.839844 18.605469 15.355469 18.121094 Z M 12.972656 15.742188 "/>
</g>
</svg>
