<svg width="27" height="27" viewBox="0 0 27 27" fill="none" xmlns="http://www.w3.org/2000/svg">
<g clip-path="url(#clip0_123_214)">
<path d="M13.5 0C10.8299 0 8.21983 0.791761 5.99977 2.27516C3.77971 3.75856 2.04938 5.86697 1.0276 8.33377C0.00581878 10.8006 -0.261526 13.515 0.259374 16.1337C0.780274 18.7525 2.06602 21.1579 3.95403 23.0459C5.84204 24.934 8.2475 26.2197 10.8662 26.7406C13.485 27.2615 16.1994 26.9942 18.6662 25.9724C21.133 24.9506 23.2414 23.2203 24.7248 21.0002C26.2082 18.7801 26.9999 16.17 26.9999 13.5C26.9999 9.91958 25.5776 6.4858 23.0459 3.95406C20.5142 1.42232 17.0804 0 13.5 0V0ZM13.5142 6.75C14.19 6.75211 14.8501 6.95457 15.4109 7.33177C15.9717 7.70898 16.4081 8.244 16.6649 8.86919C16.9216 9.49438 16.9873 10.1817 16.8535 10.8442C16.7197 11.5067 16.3925 12.1146 15.9132 12.5911C15.4339 13.0677 14.8241 13.3914 14.1609 13.5214C13.4976 13.6514 12.8107 13.5819 12.187 13.3215C11.5633 13.0612 11.0308 12.6217 10.6568 12.0588C10.2828 11.4958 10.0841 10.8346 10.0859 10.1588C10.0887 9.25217 10.4514 8.38382 11.0943 7.74461C11.7372 7.1054 12.6076 6.74764 13.5142 6.75ZM17.3404 14.9211C16.922 15.3428 16.4172 15.6689 15.8607 15.8767C15.3188 16.0708 14.755 16.1973 14.1821 16.2533C14.2691 16.3457 14.31 16.3918 14.3597 16.4469C15.1413 17.2303 15.9211 18.0118 16.6973 18.7952C16.8214 18.9068 16.9058 19.0556 16.9378 19.2194C16.9699 19.3831 16.9478 19.5528 16.875 19.7029C16.7995 19.8668 16.6773 20.0049 16.5238 20.0997C16.3702 20.1945 16.192 20.2418 16.0117 20.2358C15.7974 20.2199 15.5976 20.1219 15.4539 19.9622C14.8659 19.3725 14.2691 18.7916 13.6936 18.1859C13.5266 18.0083 13.4467 18.0438 13.2992 18.1859C12.7077 18.7952 12.1091 19.392 11.5052 19.9871C11.3937 20.1116 11.2439 20.1953 11.0794 20.2249C10.915 20.2545 10.7453 20.2284 10.5975 20.1505C10.4365 20.0761 10.3005 19.9566 10.2059 19.8066C10.1114 19.6566 10.0623 19.4823 10.0646 19.305C10.0814 19.0857 10.1834 18.8817 10.3488 18.7366C11.1173 17.9692 11.8871 17.1995 12.658 16.4274C12.7095 16.3759 12.7557 16.3226 12.8356 16.2497C11.7894 16.1414 10.8461 15.8838 10.0379 15.2514C9.93538 15.1763 9.83695 15.0956 9.74306 15.0099C9.59017 14.8736 9.49242 14.6862 9.46824 14.4828C9.44407 14.2795 9.49515 14.0743 9.61185 13.9061C9.72854 13.7378 9.90278 13.6181 10.1017 13.5694C10.3006 13.5208 10.5104 13.5467 10.6916 13.6421C10.7727 13.6804 10.85 13.7262 10.9225 13.7789C11.6711 14.2875 12.5534 14.5632 13.4583 14.5714C14.3633 14.5797 15.2504 14.32 16.0081 13.8251C16.1548 13.7079 16.3232 13.621 16.5037 13.5693C16.6702 13.5208 16.848 13.5295 17.009 13.5938C17.17 13.6582 17.3048 13.7746 17.3919 13.9245C17.6157 14.294 17.6121 14.6457 17.3404 14.9211ZM13.5088 11.8391C13.8402 11.8374 14.1635 11.7373 14.4379 11.5515C14.7122 11.3658 14.9253 11.1028 15.05 10.7959C15.1748 10.489 15.2056 10.1519 15.1386 9.82742C15.0716 9.50295 14.9097 9.20568 14.6736 8.97328C14.4374 8.74088 14.1376 8.58381 13.8121 8.52198C13.4866 8.46016 13.1501 8.49635 12.8452 8.62598C12.5403 8.75561 12.2807 8.97284 12.0994 9.25013C11.9181 9.52743 11.8232 9.85232 11.8267 10.1836C11.8274 10.4031 11.8715 10.6202 11.9566 10.8225C12.0418 11.0248 12.1661 11.2082 12.3225 11.3622C12.4789 11.5161 12.6643 11.6375 12.8679 11.7194C13.0716 11.8013 13.2894 11.842 13.5088 11.8391Z" fill="white"/>
</g>
<defs>
<clipPath id="clip0_123_214">
<rect width="27" height="27" fill="white"/>
</clipPath>
</defs>
</svg>
