<svg width="43" height="43" viewBox="0 0 43 43" fill="none" xmlns="http://www.w3.org/2000/svg">
<rect width="43" height="43" rx="4" fill="white"/>
<path d="M21.5 30C21.2798 30 21.0687 29.9125 20.913 29.7569C20.7574 29.6012 20.6699 29.3901 20.6699 29.1699V13.8301C20.6699 13.6099 20.7574 13.3988 20.913 13.2431C21.0687 13.0875 21.2798 13 21.5 13C21.7202 13 21.9313 13.0875 22.087 13.2431C22.2426 13.3988 22.3301 13.6099 22.3301 13.8301V29.1699C22.3301 29.3901 22.2426 29.6012 22.087 29.7569C21.9313 29.9125 21.7202 30 21.5 30Z" fill="#606060"/>
<path d="M29.1699 22.3301H13.8301C13.6099 22.3301 13.3988 22.2426 13.2431 22.087C13.0875 21.9313 13 21.7202 13 21.5C13 21.2798 13.0875 21.0687 13.2431 20.913C13.3988 20.7574 13.6099 20.6699 13.8301 20.6699H29.1699C29.3901 20.6699 29.6012 20.7574 29.7569 20.913C29.9125 21.0687 30 21.2798 30 21.5C30 21.7202 29.9125 21.9313 29.7569 22.087C29.6012 22.2426 29.3901 22.3301 29.1699 22.3301Z" fill="#606060"/>
</svg>
