<svg width="122" height="122" viewBox="0 0 122 122" fill="none" xmlns="http://www.w3.org/2000/svg">
<g clip-path="url(#clip0_3_110)">
<path d="M121.81 0H0V121.8H121.81V0Z" fill="#001E64"/>
<path d="M71.03 77.9901H50.79C48.5457 77.9901 46.3234 77.548 44.25 76.6891C42.1765 75.8303 40.2925 74.5715 38.7055 72.9845C37.1186 71.3975 35.8598 69.5136 35.0009 67.4401C34.1421 65.3667 33.7 63.1444 33.7 60.9001C33.7 58.6558 34.1421 56.4334 35.0009 54.36C35.8598 52.2865 37.1186 50.4026 38.7055 48.8156C40.2925 47.2287 42.1765 45.9698 44.25 45.111C46.3234 44.2521 48.5457 43.8101 50.79 43.8101H71.05C75.5826 43.8101 79.9295 45.6106 83.1345 48.8156C86.3395 52.0206 88.14 56.3675 88.14 60.9001C88.14 65.4326 86.3395 69.7795 83.1345 72.9845C79.9295 76.1895 75.5826 77.9901 71.05 77.9901" fill="#AA2332"/>
<path d="M104.62 43.8201C100.191 43.9716 95.9945 45.8375 92.9151 49.0241C89.8358 52.2107 88.1146 56.4688 88.1146 60.9001C88.1146 65.3314 89.8358 69.5895 92.9151 72.7761C95.9945 75.9626 100.191 77.8285 104.62 77.98V43.8201Z" fill="white"/>
<path d="M17.18 77.98C21.6088 77.8285 25.8055 75.9626 28.8848 72.7761C31.9642 69.5895 33.6855 65.3314 33.6855 60.9001C33.6855 56.4688 31.9642 52.2107 28.8848 49.0241C25.8055 45.8375 21.6088 43.9716 17.18 43.8201V77.98Z" fill="white"/>
</g>
<defs>
<clipPath id="clip0_3_110">
<rect width="121.81" height="121.8" fill="white"/>
</clipPath>
</defs>
</svg>
