<?xml version="1.0" encoding="UTF-8"?>
<svg xmlns="http://www.w3.org/2000/svg" xmlns:xlink="http://www.w3.org/1999/xlink" viewBox="0 0 24 24" width="24px" height="24px">
<g id="surface54690737">
<path style=" stroke:none;fill-rule:nonzero;fill:rgb(100%,100%,100%);fill-opacity:1;" d="M 20.125 3.1875 C 19.863281 3.199219 19.621094 3.273438 19.40625 3.359375 C 19.207031 3.441406 18.445312 3.769531 17.242188 4.285156 C 16.039062 4.800781 14.445312 5.484375 12.746094 6.214844 C 9.34375 7.675781 5.523438 9.324219 3.566406 10.164062 C 3.492188 10.199219 3.234375 10.28125 2.960938 10.492188 C 2.691406 10.703125 2.398438 11.144531 2.398438 11.636719 C 2.398438 12.035156 2.589844 12.425781 2.828125 12.664062 C 3.0625 12.898438 3.316406 13.011719 3.53125 13.101562 C 4.3125 13.421875 6.738281 14.414062 7.195312 14.601562 C 7.355469 15.09375 8.234375 17.777344 8.4375 18.4375 C 8.570312 18.871094 8.699219 19.140625 8.867188 19.359375 C 8.949219 19.464844 9.046875 19.558594 9.164062 19.632812 C 9.210938 19.664062 9.261719 19.6875 9.3125 19.707031 L 9.316406 19.710938 C 9.328125 19.714844 9.335938 19.722656 9.351562 19.726562 C 9.371094 19.734375 9.386719 19.734375 9.417969 19.742188 C 9.539062 19.78125 9.664062 19.804688 9.773438 19.804688 C 10.242188 19.804688 10.527344 19.546875 10.527344 19.546875 L 10.546875 19.535156 L 12.953125 17.453125 L 15.875 20.214844 C 15.914062 20.273438 16.296875 20.800781 17.144531 20.800781 C 17.644531 20.800781 18.042969 20.546875 18.300781 20.28125 C 18.554688 20.011719 18.714844 19.730469 18.78125 19.375 C 18.847656 19.039062 21.539062 5.222656 21.539062 5.222656 L 21.53125 5.242188 C 21.613281 4.882812 21.632812 4.546875 21.546875 4.214844 C 21.457031 3.886719 21.230469 3.570312 20.945312 3.398438 C 20.660156 3.226562 20.382812 3.175781 20.125 3.1875 Z M 19.972656 4.859375 C 19.96875 4.882812 19.976562 4.871094 19.96875 4.898438 L 19.96875 4.917969 C 19.96875 4.917969 17.308594 18.558594 17.210938 19.078125 C 17.21875 19.039062 17.183594 19.117188 17.152344 19.164062 C 17.105469 19.128906 17.007812 19.085938 17.007812 19.085938 L 16.992188 19.070312 L 13 15.296875 L 10.179688 17.734375 L 11.019531 14.375 C 11.019531 14.375 16.265625 8.945312 16.582031 8.628906 C 16.835938 8.375 16.890625 8.289062 16.890625 8.203125 C 16.890625 8.085938 16.828125 8 16.691406 8 C 16.570312 8 16.40625 8.117188 16.316406 8.175781 C 15.171875 8.90625 10.136719 11.839844 7.882812 13.152344 C 7.523438 13.003906 5.03125 11.984375 4.1875 11.640625 C 4.195312 11.636719 4.191406 11.640625 4.199219 11.636719 C 6.15625 10.792969 9.976562 9.148438 13.375 7.6875 C 15.078125 6.953125 16.671875 6.269531 17.875 5.753906 C 19.058594 5.246094 19.878906 4.898438 19.972656 4.859375 Z M 19.972656 4.859375 "/>
</g>
</svg>
