<svg width="48" height="48" viewBox="0 0 48 48" fill="none" xmlns="http://www.w3.org/2000/svg">
<g clip-path="url(#clip0_122_90)">
<path d="M40.9628 40.968C50.334 31.5968 50.334 16.4032 40.9628 7.03201C31.5917 -2.33916 16.398 -2.33916 7.02685 7.03201C-2.34432 16.4032 -2.34432 31.5968 7.02685 40.968C16.398 50.3392 31.5917 50.3392 40.9628 40.968Z" fill="#FFC107"/>
<path d="M38.8581 22.59C39.2974 23.0294 39.2975 23.7416 38.8581 24.181L26.9545 36.0845C24.8816 38.1573 22.1578 39.1939 19.435 39.1941C16.7115 39.1944 13.989 38.1578 11.9156 36.0845C7.76944 31.9382 7.76944 25.1919 11.9156 21.0456L21.9699 10.9913C24.8803 8.08102 29.6159 8.08102 32.5263 10.9913C33.9311 12.3961 34.7049 14.2706 34.7049 16.2694C34.7049 18.2683 33.9311 20.1427 32.5262 21.5476L22.6885 31.3852C21.8514 32.2224 20.7513 32.641 19.6517 32.6411C18.5518 32.6413 17.4522 32.2226 16.6149 31.3852C14.9405 29.7107 14.9405 26.9861 16.6149 25.3116L26.4009 15.5255C26.8404 15.0862 27.5526 15.0862 27.992 15.5255C28.4313 15.9649 28.4314 16.6771 27.992 17.1166L18.206 26.9026C17.4088 27.6998 17.4088 28.9969 18.206 29.7942C19.0032 30.5913 20.3004 30.5913 21.0976 29.7942L30.9353 19.9565C31.9152 18.9766 32.4549 17.6671 32.4549 16.2693C32.4549 14.8716 31.9152 13.5621 30.9353 12.5822C28.9021 10.5492 25.594 10.5492 23.561 12.5822L13.5067 22.6366C10.2377 25.9056 10.2377 31.2245 13.5067 34.4936C16.7755 37.7623 22.0945 37.7625 25.3636 34.4936L37.267 22.5901C37.7064 22.1507 38.4187 22.1507 38.8581 22.59Z" fill="white"/>
</g>
<defs>
<clipPath id="clip0_122_90">
<rect width="48" height="48" fill="white"/>
</clipPath>
</defs>
</svg>
