<svg width="24" height="24" viewBox="0 0 24 24" fill="none" xmlns="http://www.w3.org/2000/svg">
<path d="M22.5938 9.84375H20.4844C20.0961 9.84375 19.7812 9.52894 19.7812 9.14062V7.03125H4.21875V9.14062C4.21875 9.52894 3.90394 9.84375 3.51562 9.84375H1.40625C0.629578 9.84375 0 9.21417 0 8.4375V2.10938C0 0.944391 0.944391 0 2.10938 0H6.375C8.07239 0 9.49373 1.20989 9.82059 2.8125H21.8906C23.0556 2.8125 24 3.75689 24 4.92188V8.4375C24 9.21417 23.3704 9.84375 22.5938 9.84375Z" fill="#FFBB33"/>
<path d="M24 4.92188C24 3.75689 23.0556 2.8125 21.8906 2.8125H12V7.03125H19.7812V9.14062C19.7812 9.52894 20.0961 9.84375 20.4844 9.84375H22.5938C23.3704 9.84375 24 9.21408 24 8.4375V4.92188Z" fill="#FF9933"/>
<path d="M20.4844 9.84375H3.51562C3.12698 9.84375 2.8125 9.52927 2.8125 9.14062V6.32812C2.8125 5.93948 3.12698 5.625 3.51562 5.625H20.4844C20.873 5.625 21.1875 5.93948 21.1875 6.32812V9.14062C21.1875 9.52927 20.873 9.84375 20.4844 9.84375Z" fill="#FFF5F5"/>
<path d="M21.8906 24H2.10938C0.944391 24 0 23.0556 0 21.8906V8.4375H12.1875L24 21.8906C24 23.0556 23.0556 24 21.8906 24Z" fill="#FFE666"/>
<path d="M20.4844 5.625H12V9.84375H20.4844C20.873 9.84375 21.1875 9.52927 21.1875 9.14062V6.32812C21.1875 5.93948 20.873 5.625 20.4844 5.625Z" fill="#EFE2DD"/>
<path d="M24 8.4375H12V24H21.8906C23.0556 24 24 23.0556 24 21.8906V8.4375Z" fill="#FFBB33"/>
<path d="M16.2188 18.375C15.8301 18.375 15.5156 18.6895 15.5156 19.0781V19.7812H8.48438V19.0781C8.48438 18.6895 8.16989 18.375 7.78125 18.375C7.39261 18.375 7.07812 18.6895 7.07812 19.0781V20.4844C7.07812 20.873 7.39261 21.1875 7.78125 21.1875H16.2188C16.6074 21.1875 16.9219 20.873 16.9219 20.4844V19.0781C16.9219 18.6895 16.6074 18.375 16.2188 18.375Z" fill="#575F64"/>
<path d="M16.2188 18.375C15.8301 18.375 15.5156 18.6895 15.5156 19.0781V19.7812H12V21.1875H16.2188C16.6074 21.1875 16.9219 20.873 16.9219 20.4844V19.0781C16.9219 18.6895 16.6074 18.375 16.2188 18.375Z" fill="#474F54"/>
<path d="M11.502 18.1681C11.7721 18.439 12.2198 18.447 12.498 18.1681L15.3096 15.3565C15.5843 15.0818 15.5843 14.6369 15.3096 14.3622C15.035 14.0876 14.59 14.0876 14.3154 14.3622L12.7031 15.9745V12.0469C12.7031 11.6582 12.3886 11.3438 12 11.3438C11.6114 11.3438 11.2969 11.6582 11.2969 12.0469V15.9745L9.6846 14.3622C9.40996 14.0876 8.96498 14.0876 8.69034 14.3622C8.4157 14.6369 8.4157 15.0818 8.69034 15.3565L11.502 18.1681Z" fill="#575F64"/>
<path d="M12.498 18.1681L15.3096 15.3565C15.5843 15.0818 15.5843 14.6369 15.3096 14.3622C15.035 14.0876 14.59 14.0876 14.3154 14.3622L12.7031 15.9745V12.0469C12.7031 11.6582 12.3886 11.3438 12 11.3438V18.3736C12.1795 18.3738 12.3597 18.3068 12.498 18.1681Z" fill="#474F54"/>
</svg>
