<?xml version="1.0" encoding="UTF-8"?>
<svg xmlns="http://www.w3.org/2000/svg" xmlns:xlink="http://www.w3.org/1999/xlink" viewBox="0 0 24 24" width="24px" height="24px">
<g id="surface54694596">
<path style=" stroke:none;fill-rule:nonzero;fill:rgb(100%,100%,100%);fill-opacity:1;" d="M 11.722656 1.441406 C 11.070312 1.445312 10.414062 1.484375 9.75 1.5625 C 8.484375 1.71875 7.230469 1.976562 6.027344 2.53125 C 4.113281 3.410156 2.757812 4.902344 2.363281 7.074219 C 2.195312 7.988281 2.0625 8.914062 1.984375 9.847656 C 1.835938 11.664062 1.925781 13.480469 2.441406 15.269531 C 2.847656 16.675781 3.59375 17.941406 4.898438 18.761719 C 5.453125 19.109375 6.183594 19.277344 6.5625 19.453125 C 6.667969 19.503906 6.695312 19.535156 6.703125 19.542969 C 6.707031 19.546875 6.722656 19.5625 6.71875 19.675781 C 6.707031 20.820312 6.71875 23.042969 6.71875 23.042969 L 6.722656 23.519531 L 7.578125 23.519531 L 7.71875 23.386719 C 7.71875 23.386719 9.894531 21.289062 10.683594 20.429688 C 10.824219 20.273438 10.898438 20.1875 10.914062 20.179688 C 10.925781 20.167969 10.902344 20.164062 11.050781 20.160156 C 12.082031 20.140625 13.113281 20.101562 14.144531 20.042969 C 15.503906 19.96875 16.890625 19.839844 18.222656 19.28125 C 19.382812 18.796875 20.351562 18.003906 20.941406 16.816406 C 21.539062 15.597656 21.859375 14.304688 21.980469 12.96875 C 22.179688 10.742188 22.109375 8.511719 21.496094 6.316406 C 21.132812 5.027344 20.40625 3.9375 19.289062 3.167969 C 17.953125 2.25 16.449219 1.90625 14.976562 1.6875 C 14.113281 1.558594 13.25 1.472656 12.378906 1.449219 C 12.160156 1.441406 11.945312 1.4375 11.722656 1.441406 Z M 12.351562 2.40625 C 13.179688 2.429688 14.007812 2.511719 14.835938 2.632812 C 16.257812 2.847656 17.597656 3.167969 18.746094 3.960938 C 19.679688 4.601562 20.257812 5.46875 20.570312 6.570312 C 21.144531 8.625 21.21875 10.734375 21.023438 12.882812 C 20.914062 14.121094 20.621094 15.289062 20.078125 16.390625 C 19.597656 17.363281 18.851562 17.980469 17.851562 18.398438 C 16.6875 18.882812 15.425781 19.011719 14.09375 19.085938 C 13.074219 19.140625 12.050781 19.179688 11.03125 19.199219 C 10.773438 19.207031 10.523438 19.273438 10.34375 19.40625 C 10.167969 19.535156 10.085938 19.65625 9.976562 19.777344 C 9.414062 20.390625 8.292969 21.472656 7.679688 22.066406 C 7.675781 21.351562 7.671875 20.484375 7.679688 19.6875 C 7.683594 19.441406 7.628906 19.1875 7.488281 18.988281 C 7.347656 18.792969 7.152344 18.671875 6.96875 18.585938 C 6.425781 18.332031 5.71875 18.140625 5.410156 17.949219 C 4.335938 17.273438 3.726562 16.261719 3.363281 15 C 2.890625 13.355469 2.800781 11.65625 2.941406 9.929688 C 3.015625 9.035156 3.144531 8.136719 3.308594 7.246094 C 3.648438 5.367188 4.722656 4.1875 6.425781 3.402344 C 7.503906 2.90625 8.65625 2.664062 9.871094 2.515625 C 10.695312 2.414062 11.523438 2.382812 12.351562 2.40625 Z M 12.554688 4.800781 C 12.160156 4.800781 11.773438 4.84375 11.402344 4.925781 C 11.144531 4.988281 10.980469 5.246094 11.039062 5.503906 C 11.097656 5.761719 11.355469 5.921875 11.617188 5.863281 C 11.917969 5.796875 12.234375 5.761719 12.554688 5.761719 C 14.898438 5.761719 16.789062 7.648438 16.789062 9.992188 C 16.789062 10.316406 16.753906 10.632812 16.683594 10.933594 C 16.625 11.191406 16.785156 11.449219 17.046875 11.507812 C 17.304688 11.566406 17.5625 11.402344 17.621094 11.144531 C 17.703125 10.773438 17.75 10.390625 17.75 9.992188 C 17.75 7.128906 15.417969 4.800781 12.554688 4.800781 Z M 7.765625 5.761719 C 7.6875 5.757812 7.605469 5.765625 7.523438 5.78125 C 6.652344 5.976562 5.785156 6.609375 5.761719 7.734375 C 5.785156 7.894531 5.78125 8.0625 5.839844 8.203125 C 6.125 8.902344 6.375 9.621094 6.730469 10.28125 C 8.464844 13.488281 11.085938 15.71875 14.429688 17.132812 C 14.828125 17.300781 15.242188 17.339844 15.644531 17.167969 C 16.199219 16.9375 16.671875 16.582031 16.984375 16.070312 C 17.414062 15.367188 17.417969 14.878906 16.710938 14.359375 C 16.25 14.019531 15.792969 13.667969 15.324219 13.335938 C 14.609375 12.828125 13.835938 12.742188 13.304688 13.628906 C 13.277344 13.675781 13.234375 13.710938 13.199219 13.75 C 12.925781 14.039062 12.589844 14.109375 12.234375 13.964844 C 10.882812 13.40625 9.839844 12.511719 9.207031 11.171875 C 8.835938 10.386719 8.9375 9.992188 9.632812 9.46875 C 9.703125 9.421875 9.765625 9.367188 9.832031 9.308594 C 10.132812 9.03125 10.214844 8.699219 10.035156 8.328125 C 9.628906 7.476562 9.085938 6.714844 8.398438 6.0625 C 8.214844 5.886719 8.003906 5.773438 7.765625 5.761719 Z M 12.546875 6.238281 C 12.335938 6.238281 12.125 6.257812 11.917969 6.292969 C 11.746094 6.316406 11.597656 6.429688 11.53125 6.59375 C 11.46875 6.757812 11.5 6.945312 11.613281 7.078125 C 11.726562 7.214844 11.90625 7.273438 12.082031 7.238281 C 12.230469 7.214844 12.386719 7.199219 12.546875 7.199219 C 14.109375 7.199219 15.359375 8.453125 15.359375 10.011719 C 15.359375 10.171875 15.347656 10.328125 15.324219 10.480469 C 15.285156 10.652344 15.347656 10.832031 15.480469 10.945312 C 15.613281 11.058594 15.800781 11.089844 15.964844 11.027344 C 16.128906 10.964844 16.246094 10.816406 16.265625 10.640625 C 16.304688 10.433594 16.320312 10.222656 16.320312 10.011719 C 16.320312 7.933594 14.625 6.238281 12.546875 6.238281 Z M 12.480469 7.679688 C 12.308594 7.679688 12.144531 7.769531 12.058594 7.917969 C 11.972656 8.066406 11.972656 8.25 12.058594 8.402344 C 12.144531 8.550781 12.308594 8.640625 12.480469 8.640625 C 13.28125 8.640625 13.921875 9.28125 13.921875 10.078125 C 13.917969 10.253906 14.007812 10.414062 14.15625 10.5 C 14.308594 10.589844 14.492188 10.589844 14.640625 10.5 C 14.792969 10.414062 14.882812 10.253906 14.878906 10.078125 C 14.878906 8.761719 13.800781 7.679688 12.480469 7.679688 Z M 12.480469 7.679688 "/>
</g>
</svg>
