<svg width="27" height="27" viewBox="0 0 27 27" fill="none" xmlns="http://www.w3.org/2000/svg">
<g clip-path="url(#clip0_123_231)">
<path d="M16.2391 12.1377C16.3013 12.1438 16.3635 12.1252 16.4123 12.0861C16.4611 12.0469 16.4926 11.9902 16.5002 11.9281C16.512 11.841 16.5186 11.7532 16.5197 11.6652C16.5188 11.0366 16.2683 10.4341 15.8233 9.99009C15.3783 9.54608 14.7752 9.29694 14.1466 9.29741C14.0587 9.29683 13.971 9.30157 13.8837 9.31162C13.8528 9.315 13.8228 9.32444 13.7956 9.33939C13.7683 9.35435 13.7443 9.37452 13.7248 9.39877C13.7053 9.42302 13.6908 9.45086 13.6821 9.48071C13.6734 9.51056 13.6707 9.54183 13.6741 9.57274C13.6775 9.60365 13.6869 9.63359 13.7019 9.66085C13.7168 9.68811 13.737 9.71216 13.7612 9.73162C13.7855 9.75109 13.8133 9.76558 13.8432 9.77429C13.873 9.78299 13.9043 9.78573 13.9352 9.78234C14.0053 9.77373 14.0759 9.76957 14.1466 9.76991C14.649 9.77085 15.1305 9.97084 15.4857 10.3261C15.841 10.6813 16.041 11.1629 16.0419 11.6652C16.0414 11.7359 16.0372 11.8064 16.0295 11.8766C16.0235 11.9389 16.042 12.001 16.0812 12.0498C16.1203 12.0986 16.177 12.1301 16.2391 12.1377Z" fill="white"/>
<path d="M14.1466 10.2436C14.1137 10.2407 14.0806 10.2447 14.0494 10.2554C14.0181 10.266 13.9895 10.283 13.9652 10.3053C13.9408 10.3276 13.9214 10.3547 13.9081 10.3849C13.8949 10.4151 13.888 10.4477 13.888 10.4807C13.888 10.5137 13.8949 10.5463 13.9081 10.5765C13.9214 10.6067 13.9408 10.6338 13.9652 10.6561C13.9895 10.6784 14.0181 10.6954 14.0494 10.706C14.0806 10.7167 14.1137 10.7207 14.1466 10.7178C14.2714 10.7171 14.395 10.7411 14.5105 10.7884C14.626 10.8356 14.731 10.9053 14.8195 10.9933C14.908 11.0812 14.9782 11.1859 15.0261 11.3011C15.074 11.4163 15.0987 11.5398 15.0987 11.6646C15.1038 11.724 15.131 11.7792 15.1749 11.8195C15.2188 11.8598 15.2762 11.8821 15.3358 11.8821C15.3954 11.8821 15.4528 11.8598 15.4967 11.8195C15.5406 11.7792 15.5678 11.724 15.573 11.6646C15.573 11.4776 15.536 11.2923 15.4643 11.1196C15.3925 10.9468 15.2874 10.7899 15.1549 10.6579C15.0223 10.5259 14.8651 10.4213 14.692 10.3502C14.519 10.2791 14.3336 10.2429 14.1466 10.2436Z" fill="white"/>
<path d="M15.7577 13.6474C15.6756 13.5605 15.5725 13.4963 15.4584 13.4608C15.3443 13.4253 15.2229 13.4197 15.106 13.4447C14.9892 13.4697 14.8807 13.5244 14.791 13.6034C14.7014 13.6825 14.6336 13.7833 14.5942 13.8961C14.5332 14.0579 14.4153 14.1919 14.2626 14.273C14.1099 14.3541 13.9329 14.3767 13.7647 14.3366C13.0186 14.1412 12.0185 13.1554 11.8391 12.3667C11.7948 12.1972 11.8178 12.0171 11.9032 11.8642C11.9886 11.7112 12.1299 11.5972 12.2974 11.546C12.4109 11.5089 12.513 11.4432 12.5939 11.3553C12.6748 11.2674 12.7318 11.1603 12.7594 11.0441C12.787 10.9279 12.7844 10.8065 12.7517 10.6916C12.719 10.5767 12.6574 10.4722 12.5728 10.3879L11.5354 9.3221C11.3988 9.19419 11.2192 9.12213 11.0321 9.12016C10.845 9.11819 10.6639 9.18644 10.5247 9.31144L9.81415 10.022C9.09474 10.7627 9.85855 12.7557 11.5905 14.5356C13.3224 16.3154 15.3065 17.1592 16.0632 16.4185L16.7737 15.7079C16.902 15.5715 16.9743 15.3919 16.9763 15.2047C16.9783 15.0174 16.9098 14.8363 16.7844 14.6972L15.7577 13.6474Z" fill="white"/>
<path d="M13.5 0C10.8299 0 8.21984 0.791761 5.99978 2.27516C3.77971 3.75856 2.04938 5.86697 1.0276 8.33377C0.00581498 10.8006 -0.26153 13.515 0.259371 16.1337C0.780272 18.7525 2.06602 21.1579 3.95403 23.0459C5.84204 24.934 8.24752 26.2197 10.8663 26.7406C13.485 27.2615 16.1994 26.9942 18.6662 25.9724C21.133 24.9506 23.2414 23.2203 24.7248 21.0002C26.2082 18.7801 27 16.17 27 13.5C27 9.91958 25.5777 6.4858 23.0459 3.95406C20.5142 1.42232 17.0804 0 13.5 0V0ZM19.8947 13.5C19.8947 14.8191 19.3707 16.0842 18.438 17.0169C17.5052 17.9497 16.2401 18.4737 14.921 18.4737H12.4147L10.3506 20.5378C10.3172 20.5699 10.2752 20.5917 10.2297 20.6003C10.1841 20.6089 10.1371 20.6041 10.0943 20.5864C10.0515 20.5686 10.0147 20.5388 9.98865 20.5005C9.96255 20.4622 9.9482 20.4171 9.94735 20.3708V17.9959C9.09664 17.5923 8.37795 16.9556 7.87484 16.1598C7.37172 15.3639 7.10485 14.4416 7.10524 13.5V11.3684C7.10524 10.0493 7.62925 8.78424 8.562 7.8515C9.49475 6.91875 10.7598 6.39474 12.0789 6.39474H14.921C16.2401 6.39474 17.5052 6.91875 18.438 7.8515C19.3707 8.78424 19.8947 10.0493 19.8947 11.3684V13.5Z" fill="white"/>
<path d="M14.1466 8.34863C14.0613 8.34863 13.9761 8.35219 13.8908 8.35929C13.8281 8.364 13.7699 8.39341 13.7289 8.44105C13.688 8.48868 13.6676 8.55065 13.6723 8.6133C13.677 8.67596 13.7064 8.73418 13.7541 8.77515C13.8017 8.81613 13.8637 8.8365 13.9263 8.83179H14.1466C14.9004 8.83179 15.6233 9.13123 16.1563 9.66422C16.6893 10.1972 16.9887 10.9201 16.9887 11.6739C16.9892 11.8946 16.9636 12.1147 16.9123 12.3294C16.9024 12.3605 16.8991 12.3934 16.9025 12.426C16.9059 12.4585 16.9159 12.49 16.9321 12.5185C16.9482 12.547 16.97 12.5718 16.9961 12.5915C17.0223 12.6111 17.0522 12.6252 17.084 12.6328C17.1158 12.6404 17.1489 12.6413 17.1811 12.6356C17.2133 12.6298 17.244 12.6175 17.2712 12.5994C17.2984 12.5812 17.3216 12.5577 17.3393 12.5301C17.357 12.5026 17.3689 12.4718 17.3742 12.4395C17.433 12.1885 17.4628 11.9317 17.463 11.6739C17.4639 10.7932 17.1151 9.94824 16.4932 9.32468C15.8713 8.70112 15.0272 8.35005 14.1466 8.34863Z" fill="white"/>
</g>
<defs>
<clipPath id="clip0_123_231">
<rect width="27" height="27" fill="white"/>
</clipPath>
</defs>
</svg>
