<?xml version="1.0" encoding="UTF-8"?>
<svg xmlns="http://www.w3.org/2000/svg" xmlns:xlink="http://www.w3.org/1999/xlink" viewBox="0 0 24 24" width="24px" height="24px">
<g id="surface48214858">
<path style=" stroke:none;fill-rule:nonzero;fill:rgb(100%,100%,100%);fill-opacity:1;" d="M 22.882812 17.601562 C 21.984375 15.984375 19.667969 14.039062 18.714844 13.195312 C 18.453125 12.964844 18.421875 12.5625 18.660156 12.308594 C 20.484375 10.347656 21.945312 8.097656 22.445312 6.734375 C 22.667969 6.136719 22.207031 5.5 21.5625 5.5 L 19.6875 5.5 C 19.066406 5.5 18.707031 5.722656 18.53125 6.074219 C 17.015625 9.179688 15.71875 10.523438 14.808594 11.308594 C 14.296875 11.75 13.503906 11.386719 13.503906 10.714844 C 13.503906 9.425781 13.503906 7.757812 13.503906 6.578125 C 13.503906 6.003906 13.035156 5.539062 12.457031 5.539062 L 9.027344 5.5 C 8.597656 5.5 8.351562 5.988281 8.609375 6.332031 L 9.175781 7.144531 C 9.386719 7.425781 9.503906 7.765625 9.503906 8.117188 L 9.5 11.777344 C 9.5 12.414062 8.726562 12.726562 8.269531 12.28125 C 6.722656 10.769531 5.375 7.6875 4.890625 6.214844 C 4.753906 5.789062 4.351562 5.5 3.898438 5.5 L 2.050781 5.496094 C 1.359375 5.496094 0.851562 6.152344 1.039062 6.816406 C 2.726562 12.742188 6.195312 18.382812 12.371094 18.996094 C 12.976562 19.054688 13.503906 18.566406 13.503906 17.957031 L 13.503906 16.035156 C 13.503906 15.484375 13.9375 15.011719 14.492188 14.996094 C 14.511719 14.996094 14.53125 14.996094 14.550781 14.996094 C 16.183594 14.996094 18.011719 17.371094 18.652344 18.484375 C 18.835938 18.804688 19.179688 19 19.554688 19 L 22.039062 19 C 22.765625 19 23.230469 18.230469 22.882812 17.601562 Z M 22.882812 17.601562 "/>
</g>
</svg>
