<svg width="27" height="27" viewBox="0 0 27 27" fill="none" xmlns="http://www.w3.org/2000/svg">
<g clip-path="url(#clip0_123_186)">
<path d="M13.5 0C10.8299 0 8.21983 0.791761 5.99977 2.27516C3.77971 3.75856 2.04938 5.86697 1.0276 8.33377C0.00581878 10.8006 -0.261526 13.515 0.259374 16.1337C0.780274 18.7525 2.06602 21.1579 3.95403 23.0459C5.84204 24.934 8.2475 26.2197 10.8662 26.7406C13.485 27.2615 16.1994 26.9942 18.6662 25.9724C21.133 24.9506 23.2414 23.2203 24.7248 21.0002C26.2082 18.7801 26.9999 16.17 26.9999 13.5C26.9999 9.91958 25.5776 6.4858 23.0459 3.95406C20.5142 1.42232 17.0804 0 13.5 0V0ZM19.7259 17.7134C19.4098 17.7578 17.8732 17.7134 17.7933 17.7134C17.3961 17.7175 17.0132 17.5649 16.7275 17.2889C16.4025 16.9763 16.1094 16.6334 15.7985 16.3066C15.7046 16.2076 15.603 16.1161 15.4948 16.033C15.2408 15.8376 14.9903 15.882 14.8713 16.1805C14.7784 16.504 14.7142 16.8351 14.6794 17.1699C14.6769 17.2399 14.6606 17.3087 14.6315 17.3724C14.6024 17.4361 14.5609 17.4934 14.5096 17.5411C14.4583 17.5887 14.3981 17.6258 14.3325 17.6502C14.2668 17.6746 14.197 17.6858 14.127 17.6832C13.9174 17.6939 13.7078 17.6974 13.5 17.6832C12.7438 17.6802 11.9992 17.4975 11.3275 17.1503C10.602 16.7449 9.96968 16.1918 9.47128 15.5268C8.67348 14.4741 7.98431 13.3433 7.41431 12.1518C7.38411 12.0932 6.7855 10.8195 6.77128 10.7591C6.73576 10.6763 6.73307 10.583 6.76374 10.4983C6.79441 10.4135 6.85617 10.3436 6.93648 10.3026C7.04306 10.2618 9.01655 10.3026 9.04852 10.3026C9.19538 10.3006 9.33903 10.3457 9.45831 10.4314C9.57759 10.5171 9.6662 10.6388 9.71108 10.7787C10.0761 11.7114 10.5745 12.5861 11.1908 13.3757C11.2772 13.4807 11.3783 13.5729 11.491 13.6492C11.52 13.6773 11.556 13.6972 11.5952 13.7068C11.6345 13.7164 11.6756 13.7154 11.7143 13.7038C11.7531 13.6922 11.788 13.6705 11.8155 13.6409C11.8431 13.6114 11.8623 13.575 11.8711 13.5355C11.9493 13.2781 11.9952 13.012 12.0079 12.7433C12.0185 12.2104 12.0079 11.8551 11.9777 11.3222C11.9884 11.1406 11.9271 10.9621 11.807 10.8255C11.687 10.6888 11.5179 10.6049 11.3364 10.5922C11.1801 10.5655 11.1588 10.4376 11.2671 10.3097C11.475 10.0451 11.7627 10.0024 12.0754 9.98645C12.5479 9.9598 13.0221 9.98645 13.4964 9.98645H13.5994C13.8077 9.98593 14.0154 10.0068 14.2194 10.0486C14.3386 10.073 14.4468 10.1354 14.5278 10.2263C14.6088 10.3172 14.6582 10.4318 14.6688 10.5531C14.6926 10.6873 14.7034 10.8236 14.7008 10.9599C14.6883 11.5425 14.6599 12.1234 14.6528 12.7042C14.6485 12.9343 14.6693 13.1643 14.715 13.3899C14.7842 13.6989 14.9956 13.7771 15.2123 13.5533C15.4824 13.2628 15.73 12.9523 15.9531 12.6243C16.3538 12.0286 16.684 11.3884 16.9371 10.7165C17.0739 10.3719 17.1787 10.2955 17.55 10.2955H19.6442C19.7691 10.2936 19.8935 10.3098 20.0137 10.3435C20.056 10.3548 20.0956 10.3746 20.1299 10.4019C20.1643 10.4291 20.1927 10.4631 20.2133 10.5017C20.234 10.5404 20.2465 10.5828 20.25 10.6265C20.2536 10.6702 20.2481 10.7141 20.234 10.7556C20.1119 11.2014 19.9017 11.6181 19.6158 11.9812C19.1895 12.5852 18.7419 13.1732 18.3049 13.7682C18.2492 13.844 18.1988 13.9236 18.1539 14.0063C17.9905 14.3029 18.0029 14.4681 18.2392 14.7168C18.6193 15.1093 19.0261 15.4753 19.392 15.8767C19.6615 16.1702 19.9051 16.4864 20.1203 16.8217C20.3903 17.2445 20.2251 17.6424 19.7259 17.7134Z" fill="white"/>
</g>
<defs>
<clipPath id="clip0_123_186">
<rect width="27" height="27" fill="white"/>
</clipPath>
</defs>
</svg>
